HIERARCHY
ROOT Hips
{
	OFFSET -0.179506 -22.333345 2.821913
	CHANNELS 6 Xposition Yposition Zposition Zrotation Yrotation Xrotation 
	JOINT LeftUpLeg
	{
		OFFSET 6.951974 -9.140623 -0.681533
		CHANNELS 3 Zrotation Yrotation Xrotation
		JOINT LeftLeg
		{
			OFFSET 3.427654 -37.519855 -0.449580
			CHANNELS 3 Zrotation Yrotation Xrotation
			JOINT LeftFoot
			{
				OFFSET -1.359570 -39.796059 -4.369333
				CHANNELS 3 Zrotation Yrotation Xrotation
				JOINT LeftToe
				{
					OFFSET 2.635814 -5.579078 11.928840
					CHANNELS 3 Zrotation Yrotation Xrotation
					End Site
					{
						OFFSET 0.000000 0.000000 0.000000
					}
				}
			}
		}
	}
	JOINT RightUpLeg
	{
		OFFSET -6.767048 -9.052170 -0.431982
		CHANNELS 3 Zrotation Yrotation Xrotation
		JOINT RightLeg
		{
			OFFSET -3.829005 -38.256897 -0.885003
			CHANNELS 3 Zrotation Yrotation Xrotation
			JOINT RightFoot
			{
				OFFSET 1.577377 -39.841461 -4.231180
				CHANNELS 3 Zrotation Yrotation Xrotation
				JOINT RightToe
				{
					OFFSET -2.537174 -4.814398 12.334795
					CHANNELS 3 Zrotation Yrotation Xrotation
					End Site
					{
						OFFSET 0.000000 0.000000 0.000000
					}
				}
			}
		}
	}
	JOINT Spine
	{
		OFFSET -0.253288 10.896323 -2.669631
		CHANNELS 3 Zrotation Yrotation Xrotation
		JOINT Spine1
		{
			OFFSET 0.548704 13.518043 0.109247
			CHANNELS 3 Zrotation Yrotation Xrotation
			JOINT Spine2
			{
				OFFSET 0.145701 5.292222 2.542457
				CHANNELS 3 Zrotation Yrotation Xrotation
				JOINT Neck
				{
					OFFSET -0.277840 21.387037 -4.285703
					CHANNELS 3 Zrotation Yrotation Xrotation
					JOINT Head
					{
						OFFSET 0.515184 6.496960 5.134897
						CHANNELS 3 Zrotation Yrotation Xrotation
						End Site
						{
							OFFSET 0.000000 0.000000 0.000000
						}
					}
				}
				JOINT LeftShoulder
				{
					OFFSET 7.884473 12.174932 -3.408961
					CHANNELS 3 Zrotation Yrotation Xrotation
					JOINT LeftArm
					{
						OFFSET 9.097692 3.046888 -0.886815
						CHANNELS 3 Zrotation Yrotation Xrotation
						JOINT LeftForeArm
						{
							OFFSET 25.961220 -1.277207 -2.745643
							CHANNELS 3 Zrotation Yrotation Xrotation
							JOINT LeftHand
							{
								OFFSET 24.923361 0.898606 -0.117091
								CHANNELS 3 Zrotation Yrotation Xrotation
								End Site
								{
									OFFSET 0.000000 0.000000 0.000000
								}
							}
						}
					}
				}
				JOINT RightShoulder
				{
					OFFSET -8.175920 11.883285 -3.861528
					CHANNELS 3 Zrotation Yrotation Xrotation
					JOINT RightArm
					{
						OFFSET -9.601238 3.255117 -0.914307
						CHANNELS 3 Zrotation Yrotation Xrotation
						JOINT RightForeArm
						{
							OFFSET -25.374195 -1.332924 -2.140099
							CHANNELS 3 Zrotation Yrotation Xrotation
							JOINT RightHand
							{
								OFFSET -25.529810 0.777228 -0.555919
								CHANNELS 3 Zrotation Yrotation Xrotation
								End Site
								{
									OFFSET 0.000000 0.000000 0.000000
								}
							}
						}
					}
				}
			}
		}
	}
}
MOTION
Frames: 7
Frame Time: 0.033333
335.963867 330.809082 94.546127 -48.918100 -1.430010 87.946724 -1.783264 0.430583 2.755451 -0.698077 -5.839826 -2.596931 2.038907 10.807198 -5.144357 nan nan nan -2.922679 -3.099201 4.472239 3.801884 -0.569468 -4.060529 5.182738 -4.577756 1.922454 nan nan nan -2.113841 3.839862 -4.462163 3.290758 -4.154859 16.546684 -0.204641 0.517311 -6.849944 -4.095065 2.308044 6.968162 2.062373 -1.043119 -1.094091 -29.074604 -3.169171 4.709529 -57.281317 -4.866007 22.276669 7.534624 -20.469299 6.917832 8.143890 -23.876534 -0.342798 28.856100 6.877499 2.488341 62.302094 -1.791022 10.829992 -21.341839 20.875099 -37.583485 -16.606983 19.390729 -39.033165 
336.002686 330.880493 94.438858 -48.917495 -1.537673 88.419655 -1.842466 0.322754 2.053563 -0.841305 -5.571214 -2.361797 2.034147 10.752952 -5.169316 nan nan nan -3.025337 -3.045775 3.804448 3.809191 -0.624806 -3.943040 5.223000 -4.580191 2.176272 nan nan nan -2.137434 3.787019 -4.569488 3.232802 -4.141221 15.980706 -0.313620 0.468825 -7.060349 -3.976326 2.177965 6.770545 2.075407 -0.921048 -0.327429 -29.238030 -2.664077 4.434285 -57.160446 -4.939645 22.308450 7.448028 -19.871344 6.265878 7.284499 -23.835838 -0.253114 28.954785 6.338803 2.229778 62.158275 -1.782266 10.975660 -20.959755 20.456253 -37.287437 -15.821065 19.498234 -38.278871 
336.065399 330.976685 94.325829 -49.043986 -1.551076 88.861421 -1.775605 0.234179 1.364596 -0.949956 -5.265184 -2.142550 2.032767 10.676138 -5.204234 nan nan nan -3.034280 -2.943548 3.089020 3.818852 -0.693280 -3.710427 5.293302 -4.480659 2.353316 nan nan nan -2.126756 3.793570 -4.445737 3.201980 -4.006950 15.438287 -0.352225 0.494300 -7.169176 -3.939369 2.416756 6.566767 2.051248 -0.817058 -0.276193 -29.113476 -2.212893 4.059270 -57.352600 -5.060705 22.390404 7.466925 -19.537999 5.788261 6.261975 -23.772001 -0.152335 28.881416 5.853071 2.080693 62.116335 -1.778902 11.046427 -20.756565 20.381148 -36.870056 -14.777449 19.632258 -37.621533 
336.044128 330.938843 94.234848 -48.871990 -1.603268 89.092733 -1.808960 0.120706 1.088420 -0.956401 -5.232336 -2.150130 2.074043 10.611325 -5.147010 nan nan nan -3.131968 -3.009026 2.980343 3.849154 -0.775979 -3.910170 5.334017 -4.536104 2.568528 nan nan nan -2.152622 3.781619 -4.537285 3.195817 -4.023891 15.120989 -0.382836 0.440549 -7.198563 -3.834105 2.239328 6.315210 1.969877 -0.863672 0.172982 -29.042373 -1.929202 3.962621 -57.475483 -5.161917 22.396640 7.429836 -19.294464 5.574619 5.481880 -23.652147 0.057608 28.811241 5.465754 1.959867 62.102384 -1.925290 11.047013 -20.661611 20.366205 -36.558270 -13.916750 19.682998 -36.974732 
336.077789 331.017975 94.179123 -49.094263 -1.595057 89.329360 -1.734206 0.116855 0.740104 -1.008955 -5.006567 -2.054900 2.075256 10.586626 -5.169586 nan nan nan -3.102888 -2.905685 2.553409 3.831651 -0.780057 -3.736667 5.377232 -4.438728 2.645822 nan nan nan -2.124860 3.752540 -4.503685 3.169068 -3.943675 14.811132 -0.428428 0.459587 -7.244314 -3.774341 2.425909 6.350300 1.926029 -0.766774 0.235037 -28.887706 -1.604767 3.713683 -57.604458 -5.105087 22.446543 7.442406 -19.218070 5.391742 5.055944 -23.648681 -0.029016 28.691333 5.240105 1.820030 62.177936 -1.790319 11.234836 -20.413620 20.138930 -36.215991 -13.493537 19.729455 -36.719888 
335.960419 330.936066 93.898537 -48.356442 -1.080850 90.579580 -0.866133 -0.635574 -0.683189 -1.522254 -5.629138 -2.033207 2.915825 11.295074 -4.907483 nan nan nan -2.410729 -2.614975 1.645466 3.877213 -0.239043 -4.342522 4.848116 -6.127214 2.699296 nan nan nan -1.883950 3.215565 -1.609664 3.580029 -3.612655 8.719420 -0.366529 0.238538 -5.180173 -2.940848 0.351459 1.145724 0.859964 0.683186 2.044290 -27.250248 2.741081 0.641437 -60.589142 -5.825377 21.883834 8.431613 -20.237403 0.632637 -0.599609 -18.046807 -4.484343 28.336779 0.112561 -1.082593 60.593053 0.136363 13.480977 -16.988724 20.581288 -20.516831 -5.788350 12.072616 -16.318118 
335.960297 330.926758 93.769714 -48.306824 -1.063925 90.911028 -0.814545 -0.668911 -1.111637 -1.567636 -5.425799 -1.993411 2.877436 11.248262 -4.756127 nan nan nan -2.455518 -2.649905 1.317411 3.941788 -0.333972 -4.343483 4.861249 -6.143306 2.850945 nan nan nan -1.777614 3.176286 -1.747965 3.507133 -3.580839 8.221254 -0.427414 0.240284 -4.989642 -2.899814 0.368723 1.040798 0.816716 0.747580 2.268704 -27.026545 2.878235 0.605378 -60.883848 -5.850488 21.866473 8.437509 -20.077224 0.737814 -1.052548 -17.830256 -4.335038 28.068641 -0.152699 -1.144642 60.870030 0.145802 13.337292 -16.929861 20.713422 -20.216816 -5.285123 11.696745 -15.838822 
